<?xml version="1.0" encoding="iso-8859-1"?>
<!-- Generator: Adobe Illustrator 19.0.0, SVG Export Plug-In . SVG Version: 6.00 Build 0)  -->
<svg version="1.1" id="Capa_1" xmlns="http://www.w3.org/2000/svg" xmlns:xlink="http://www.w3.org/1999/xlink" x="0px" y="0px"
	 viewBox="0 0 512 512" style="enable-background:new 0 0 512 512;" xml:space="preserve">
<path style="fill:#C1C6CA;" d="M427.929,498.035H84.071c-7.246,0-13.12-5.874-13.12-13.12v-5.771c0-7.246,5.874-13.12,13.12-13.12
	h343.857c7.246,0,13.12,5.874,13.12,13.12v5.771C441.048,492.161,435.174,498.035,427.929,498.035z"/>
<path style="fill:#C3E9F1;" d="M260.56,146.681c-36.519,3.195-68.828-23.916-72.023-60.435
	c-3.195-36.518,23.916-68.828,60.435-72.023s68.828,23.916,72.023,60.434C324.189,111.177,297.078,143.486,260.56,146.681z
	 M251.856,47.199c-18.336,1.604-31.948,17.827-30.344,36.162c1.604,18.336,17.827,31.948,36.163,30.344s31.948-17.827,30.344-36.163
	C286.415,59.207,270.192,45.595,251.856,47.199z"/>
<path style="opacity:0.1;enable-background:new    ;" d="M260.56,146.681c36.519-3.195,63.629-35.504,60.435-72.023
	c-0.48-5.486-1.629-10.754-3.338-15.745c-8.517-0.669-17.362-1.002-26.563-1.002c-3.774,0-7.639,0.065-11.566,0.181
	c4.714,5.207,7.834,11.93,8.492,19.451c1.604,18.336-12.008,34.559-30.344,36.163s-34.559-12.008-36.163-30.344
	c-0.657-7.509,1.241-14.661,4.967-20.602c-13.197,1.951-25.652,4.47-37.408,7.536c-0.8,5.17-1.01,10.512-0.535,15.951
	C191.732,122.765,224.041,149.876,260.56,146.681z"/>
<path style="fill:#8DB5EA;" d="M443.888,159.079c6.858-0.6,10.587-8.379,6.695-14.058c-44.368-64.745-118.692-76.473-196.265-69.686
	c-77.574,6.787-148.731,31.243-181.183,102.708c-2.846,6.268,2.177,13.281,9.035,12.682L443.888,159.079z"/>
<path style="opacity:0.1;enable-background:new    ;" d="M167.706,93.341c-40.96,15.305-74.887,41.354-94.571,84.703
	c-2.846,6.268,2.177,13.281,9.035,12.681l120.013-10.5C174.169,163.801,161.401,116.275,167.706,93.341z"/>
<path style="fill:#8DB5EA;" d="M88.325,253.596H19.486c-6.62,0-11.986-5.366-11.986-11.986v-13.874
	c0-6.62,5.366-11.986,11.986-11.986h68.839V253.596z"/>
<path style="opacity:0.1;enable-background:new    ;" d="M45.988,253.596h42.338v-37.847H41.063
	C43.935,228.151,45.581,240.827,45.988,253.596z"/>
<path style="fill:#8DB5EA;" d="M423.675,253.596h68.839c6.62,0,11.986-5.366,11.986-11.986v-13.874
	c0-6.62-5.366-11.986-11.986-11.986h-68.839V253.596z"/>
<path style="opacity:0.1;enable-background:new    ;" d="M466.012,253.596h-42.337v-37.847h47.262
	C468.065,228.151,466.419,240.827,466.012,253.596z"/>
<path style="fill:#C3E9F1;" d="M458.181,182.819L458.181,182.819c-10.433,24.329-15.813,50.524-15.813,76.996v138.228
	c0,22.236-18.026,40.262-40.262,40.262H256H109.893c-22.236,0-40.262-18.026-40.262-40.262V259.815
	c0-26.472-5.38-52.667-15.813-76.996l0,0c-2.737-6.383,1.945-13.486,8.89-13.486H449.29
	C456.237,169.333,460.919,176.435,458.181,182.819z"/>
<path style="opacity:0.1;enable-background:new    ;" d="M69.632,391.786v6.257c0,22.236,18.026,40.262,40.262,40.262H256h146.107
	c22.236,0,40.261-18.026,40.261-40.262v-6.257H69.632z"/>
<g>
	<path style="fill:#BA8E79;" d="M350.572,260.248L350.572,260.248c13.788,0,24.965-11.177,24.965-24.965v-66.315
		c0-8.794-7.129-15.924-15.924-15.924H341.53c-8.794,0-15.924,7.129-15.924,15.924v66.315
		C325.606,249.071,336.784,260.248,350.572,260.248z"/>
	<path style="fill:#BA8E79;" d="M276.926,228.232L276.926,228.232c13.788,0,24.965-11.177,24.965-24.965v-34.298
		c0-8.794-7.129-15.924-15.924-15.924h-18.083c-8.794,0-15.924,7.129-15.924,15.924v34.298
		C251.96,217.055,263.138,228.232,276.926,228.232z"/>
</g>
<g>
	<ellipse style="fill:#F18290;" cx="167.97" cy="347.78" rx="32.482" ry="25.867"/>
	<ellipse style="fill:#F18290;" cx="344.03" cy="347.78" rx="32.482" ry="25.867"/>
</g>
<g>
	<path style="fill:#5D6671;" d="M256,351.441L256,351.441c-12.997,0-23.533-10.536-23.533-23.533v-17.109
		c0-3.548,2.876-6.424,6.424-6.424h34.218c3.548,0,6.424,2.876,6.424,6.424v17.109C279.533,340.905,268.997,351.441,256,351.441z"/>
	<rect x="109.89" y="438.31" style="fill:#5D6671;" width="292.21" height="27.719"/>
</g>
<path style="opacity:0.1;enable-background:new    ;" d="M62.709,169.333c-6.946,0-11.628,7.103-8.89,13.486l0,0
	c10.433,24.329,15.813,50.524,15.813,76.996v138.229c0,22.236,18.026,40.262,40.262,40.262h109.257
	c-72.105-51.148-70.566-218.46-69.81-268.972H62.709V169.333z"/>
<path style="opacity:0.1;enable-background:new    ;" d="M187.294,466.024H84.071c-7.246,0-13.12,5.874-13.12,13.12v5.771
	c0,7.246,5.874,13.12,13.12,13.12h109.791C183.597,487.075,185.003,472.992,187.294,466.024z"/>
<path d="M346.101,317.24v-13.942c0-4.142-3.357-7.5-7.5-7.5s-7.5,3.358-7.5,7.5v13.942c0,4.142,3.357,7.5,7.5,7.5
	C342.743,324.74,346.101,321.382,346.101,317.24z M492.514,208.25h-35.446c2.179-7.613,4.849-15.112,8.007-22.475
	c2.282-5.322,1.742-11.386-1.445-16.221c-2.291-3.475-5.707-5.936-9.596-7.05c1.66-1.466,3.038-3.278,4.031-5.379
	c2.531-5.358,2.048-11.468-1.294-16.344c-3.586-5.233-7.452-10.258-11.491-14.936c-2.707-3.135-7.443-3.482-10.578-0.775
	s-3.482,7.443-0.775,10.578c3.676,4.257,7.199,8.837,10.472,13.613c0.311,0.455,0.347,0.944,0.104,1.456
	c-0.175,0.371-0.537,0.826-1.267,0.89l-63.407,5.548c-4.071-6.938-11.605-11.61-20.214-11.61H341.53
	c-10.428,0-19.283,6.851-22.309,16.288h-10.946c-3.025-9.437-11.88-16.288-22.309-16.288h-18.083
	c-10.428,0-19.283,6.851-22.309,16.288H90.453c15.033-23.497,35.93-41.425,63.564-54.573
	c27.069-12.879,60.092-20.878,100.955-24.453c67.258-5.886,117.669,3.97,154.134,30.122c3.367,2.413,8.052,1.642,10.466-1.724
	s1.643-8.052-1.724-10.466c-24.388-17.491-54.199-28.272-90.134-32.509c-2.885-17.357-11.759-32.971-25.413-44.427
	c-15.153-12.715-34.327-18.771-53.982-17.051c-19.658,1.72-37.487,11.013-50.202,26.166c-11.452,13.649-17.481,30.56-17.314,48.121
	c-11.899,3.578-22.956,7.788-33.23,12.676c-32.867,15.638-57.921,38.553-74.58,68.118H62.709c-5.791,0-11.15,2.886-14.338,7.721
	c-3.188,4.835-3.728,10.898-1.445,16.221c3.158,7.363,5.828,14.862,8.007,22.475H19.486C8.741,208.249,0,216.991,0,227.736v13.874
	c0,10.745,8.741,19.486,19.486,19.486h42.646v72.994c0,4.142,3.358,7.5,7.5,7.5c4.143,0,7.5-3.358,7.5-7.5v-74.275
	c0-27.645-5.524-54.545-16.421-79.952c-0.401-0.936-0.058-1.688,0.184-2.052c0.24-0.365,0.796-0.978,1.814-0.978H77.38
	c0.008,0,0.017,0.001,0.025,0.001c0.007,0,0.014-0.001,0.022-0.001H244.46v26.434c0,17.901,14.564,32.465,32.466,32.465
	c17.901,0,32.465-14.564,32.465-32.465v-26.434h8.716v58.45c0,17.901,14.563,32.465,32.465,32.465s32.466-14.564,32.466-32.465
	v-58.45h66.254c1.019,0,1.574,0.612,1.815,0.978c0.241,0.365,0.584,1.117,0.184,2.052c-10.896,25.407-16.421,52.307-16.421,79.952
	v138.229c0,18.065-14.697,32.762-32.762,32.762H109.894c-18.064,0-32.762-14.697-32.762-32.762v-29.251c0-4.142-3.357-7.5-7.5-7.5
	c-4.142,0-7.5,3.358-7.5,7.5v29.251c0,23.784,17.477,43.558,40.262,47.168v13.312H84.071c-11.37,0-20.62,9.25-20.62,20.62v5.771
	c0,11.37,9.25,20.62,20.62,20.62h343.857c11.37,0,20.62-9.25,20.62-20.62v-5.771c0-11.37-9.25-20.62-20.62-20.62h-18.322v-13.312
	c22.785-3.609,40.262-23.384,40.262-47.168V261.096h42.646c10.745,0,19.486-8.741,19.486-19.486v-13.874
	C512,216.991,503.259,208.25,492.514,208.25z M253.665,67.864c-7.852,0.687-15.43,1.537-22.754,2.547
	c3.626-8.614,11.79-14.882,21.599-15.74c9.811-0.862,18.949,3.903,24.017,11.77C269.109,66.712,261.499,67.178,253.665,67.864z
	 M209.606,42.559c10.14-12.084,24.353-19.494,40.019-20.864c15.67-1.37,30.949,3.459,43.033,13.598
	c9.859,8.273,16.601,19.256,19.497,31.54c-6.195-0.393-12.555-0.614-19.091-0.655c-6.308-16.981-23.313-28.066-41.861-26.451
	c-18.541,1.623-33.354,15.483-36.628,33.29c-6.439,1.17-12.671,2.476-18.692,3.933C196.611,64.378,201.344,52.407,209.606,42.559z
	 M61.631,246.096H19.486c-2.474,0-4.486-2.013-4.486-4.486v-13.874c0-2.474,2.013-4.486,4.486-4.486h39.063
	C60.042,230.777,61.074,238.398,61.631,246.096z M294.391,203.267c0,9.63-7.835,17.465-17.465,17.465
	c-9.631,0-17.466-7.835-17.466-17.465v-34.298c0-4.645,3.779-8.424,8.424-8.424h18.083c4.645,0,8.424,3.779,8.424,8.424
	L294.391,203.267L294.391,203.267z M368.037,235.283c0,9.63-7.835,17.465-17.466,17.465c-9.63,0-17.465-7.835-17.465-17.465v-66.314
	c0-4.645,3.779-8.424,8.424-8.424h18.083c3.947,0,7.259,2.732,8.168,6.402c0.024,0.097,0.047,0.195,0.075,0.29
	c0.117,0.56,0.181,1.139,0.181,1.732L368.037,235.283L368.037,235.283z M117.394,445.805h277.213v12.719H117.394V445.805z
	 M427.929,473.524c3.099,0,5.62,2.521,5.62,5.62v5.771c0,3.099-2.521,5.62-5.62,5.62H84.071c-3.099,0-5.62-2.521-5.62-5.62v-5.771
	c0-3.099,2.521-5.62,5.62-5.62H427.929z M497,241.61c0,2.474-2.013,4.486-4.486,4.486h-42.145
	c0.557-7.697,1.589-15.319,3.082-22.846h39.063c2.474,0,4.486,2.012,4.486,4.486V241.61z M180.899,317.24v-13.942
	c0-4.142-3.357-7.5-7.5-7.5s-7.5,3.358-7.5,7.5v13.942c0,4.142,3.357,7.5,7.5,7.5S180.899,321.382,180.899,317.24z M287.033,327.908
	v-17.109c0-7.678-6.246-13.924-13.924-13.924H238.89c-7.678,0-13.924,6.246-13.924,13.924v17.109
	c0,17.111,13.922,31.033,31.033,31.033S287.033,345.019,287.033,327.908z M239.967,327.908v-16.033h32.066v16.033
	c0,8.84-7.192,16.033-16.033,16.033C247.159,343.941,239.967,336.748,239.967,327.908z"/>
<g>
</g>
<g>
</g>
<g>
</g>
<g>
</g>
<g>
</g>
<g>
</g>
<g>
</g>
<g>
</g>
<g>
</g>
<g>
</g>
<g>
</g>
<g>
</g>
<g>
</g>
<g>
</g>
<g>
</g>
</svg>
