<?xml version="1.0" encoding="iso-8859-1"?>
<!-- Generator: Adobe Illustrator 19.0.0, SVG Export Plug-In . SVG Version: 6.00 Build 0)  -->
<svg xmlns="http://www.w3.org/2000/svg" xmlns:xlink="http://www.w3.org/1999/xlink" version="1.1" id="Layer_1" x="0px" y="0px" viewBox="0 0 512.003 512.003" style="enable-background:new 0 0 512.003 512.003;" xml:space="preserve" width="512" height="512">
<g id="cooking_pot">
	<g id="fill_1_">
		<path style="fill:#F46262;" d="M195.093,147.477v-26.13c0-28.677,23.331-52.008,52.008-52.008h10.536    c28.677,0,52.008,23.33,52.008,52.008v26.13h35.143v-26.13c0-48.055-39.096-87.151-87.151-87.151h-10.536    c-48.055,0-87.151,39.096-87.151,87.151v26.13H195.093z"/>
		<path style="fill:#BF4C4C;" d="M195.093,121.347c0-26.718,20.254-48.784,46.213-51.677c-60.459,3.621-79.993,36.274-79.993,36.274    l0,0c-0.895,5.001-1.363,10.148-1.363,15.403v26.13h35.143V121.347z"/>
		<path style="fill:#BF4C4C;" d="M263.198,69.641c26.071,2.785,46.446,24.908,46.446,51.707v26.13h35.143v-26.13    c0-5.914-0.595-11.692-1.723-17.279C343.04,104.029,323.765,73.008,263.198,69.641z"/>
		<g>
			<path style="fill:#F46262;" d="M366.864,266.798l36.516,19.026c17.786,9.267,39.161,9.543,57.181,0.739l30.802-15.049     c11.626-5.68,16.446-19.709,10.766-31.335c-5.68-11.627-19.71-16.446-31.335-10.766l-30.802,15.05     c-4.714,2.303-10.306,2.231-14.959-0.194l-36.516-19.026c-11.475-5.979-25.624-1.524-31.603,9.952     C350.933,246.67,355.388,260.819,366.864,266.798z"/>
		</g>
		<g>
			<path style="fill:#F46262;" d="M145.158,266.798l-36.515,19.026c-17.786,9.267-39.161,9.543-57.181,0.739L20.66,271.513     c-11.626-5.68-16.446-19.709-10.766-31.335c5.68-11.627,19.71-16.446,31.335-10.766l30.802,15.05     c4.714,2.303,10.306,2.231,14.959-0.194l36.515-19.026c11.475-5.979,25.624-1.524,31.603,9.952     C161.089,246.67,156.633,260.819,145.158,266.798z"/>
		</g>
		<path style="fill:#D65B5B;" d="M51.462,286.563c18.019,8.804,39.395,8.528,57.181-0.739l36.515-19.026    c11.475-5.979,15.931-20.128,9.952-31.603c-5.979-11.475-20.128-15.931-31.603-9.952l-36.515,19.026    c-4.653,2.424-10.245,2.497-14.959,0.194l-11.104-5.425c-5.224,12.568-10.062,27.774-13.316,45.645L51.462,286.563z"/>
		<path style="fill:#D65B5B;" d="M460.56,286.563c-18.019,8.804-39.395,8.528-57.181-0.739l-36.516-19.026    c-11.475-5.979-15.931-20.128-9.952-31.603c5.979-11.475,20.128-15.931,31.603-9.952l36.516,19.026    c4.653,2.424,10.245,2.497,14.959,0.194l11.104-5.425c5.224,12.568,10.062,27.774,13.316,45.645L460.56,286.563z"/>
		<path style="fill:#EAEAEA;" d="M359.802,457.967H152.22c-38.429,0-69.581-31.153-69.581-69.581V173.49h346.745v214.896    C429.383,426.815,398.231,457.967,359.802,457.967z"/>
		<path style="fill:#D8D7DA;" d="M82.638,173.49v214.896c0,38.429,31.153,69.581,69.581,69.581h84.582    c-19.668-29.035-28.605-65.622-32.452-96.963c-4.287-34.923,19.939-67.111,54.786-71.975    c99.559-13.897,170.248-59.739,170.248-59.739v-55.8H82.638z"/>
		<path style="fill:#C6C5CA;" d="M82.638,173.49c0,0-2.891-77.816,173.373-77.816s173.372,77.816,173.372,77.816H82.638z"/>
		<path style="fill:#ACABB1;" d="M311.939,98.758c-16.284-1.965-34.818-3.084-55.929-3.084    c-176.263,0-173.373,77.816-173.373,77.816h111.857C194.496,173.49,192.262,113.2,311.939,98.758z"/>
		<path style="fill:#FF929F;" d="M428.656,229.29H83.366c-19.562,0-35.567-16.005-35.567-35.567v0    c0-19.562,16.005-35.567,35.567-35.567h345.29c19.562,0,35.567,16.005,35.567,35.567v0    C464.223,213.285,448.218,229.29,428.656,229.29z"/>
		<path style="fill:#FF737D;" d="M146.043,193.723L146.043,193.723c0-19.562,16.005-35.567,35.567-35.567H83.366    c-19.562,0-35.567,16.005-35.567,35.567l0,0c0,19.562,16.005,35.567,35.567,35.567h98.245    C162.049,229.29,146.043,213.285,146.043,193.723z"/>
		<path style="fill:#FFB192;" d="M202.704,448.531c0,16.168-13.107,29.275-29.275,29.275c-16.168,0-29.275-13.107-29.275-29.275    c0-16.168,13.107-56.655,29.275-56.655C189.597,391.877,202.704,432.363,202.704,448.531z"/>
		<path style="fill:#FF9478;" d="M173.429,448.531c0-10.836,5.887-32.593,14.638-45.766c-4.306-6.483-9.305-10.888-14.638-10.888    c-16.168,0-29.275,40.486-29.275,56.654c0,16.168,13.107,29.275,29.275,29.275c5.334,0,10.331-1.434,14.638-3.926    C179.319,468.818,173.429,459.365,173.429,448.531z"/>
		<path style="fill:#FFB192;" d="M285.286,448.531c0,16.168-13.107,29.275-29.275,29.275c-16.168,0-29.275-13.107-29.275-29.275    c0-16.168,13.107-56.655,29.275-56.655C272.179,391.877,285.286,432.363,285.286,448.531z"/>
		<path style="fill:#FFB192;" d="M367.868,448.531c0,16.168-13.107,29.275-29.275,29.275c-16.168,0-29.275-13.107-29.275-29.275    c0-16.168,13.107-56.655,29.275-56.655C354.761,391.877,367.868,432.363,367.868,448.531z"/>
		<path style="fill:#FF9478;" d="M256.011,448.531c0-10.836,5.887-32.593,14.638-45.766c-4.306-6.483-9.305-10.888-14.638-10.888    c-16.168,0-29.275,40.486-29.275,56.654c0,16.168,13.107,29.275,29.275,29.275c5.334,0,10.331-1.434,14.638-3.926    C261.901,468.818,256.011,459.365,256.011,448.531z"/>
		<path style="fill:#FF9478;" d="M338.593,448.531c0-10.836,5.887-32.593,14.638-45.766c-4.306-6.483-9.305-10.888-14.638-10.888    c-16.168,0-29.275,40.486-29.275,56.654c0,16.168,13.107,29.275,29.275,29.275c5.334,0,10.331-1.434,14.638-3.926    C344.482,468.818,338.593,459.365,338.593,448.531z"/>
		<path style="fill:#57565C;" d="M256.01,345.269L256.01,345.269c-15.52,0-28.1-12.581-28.1-28.1v-20.43    c0-4.237,3.434-7.671,7.671-7.671h40.859c4.237,0,7.671,3.434,7.671,7.671v20.43C284.11,332.688,271.53,345.269,256.01,345.269z"/>
		<ellipse style="fill:#FFA6BB;" cx="162.015" cy="317.169" rx="29.973" ry="23.869"/>
		<ellipse style="fill:#FFA6BB;" cx="350.006" cy="317.169" rx="29.973" ry="23.869"/>
	</g>
	<g id="stroke_2_">
		<path d="M508.867,236.886c-7.487-15.322-26.043-21.699-41.367-14.212l-19.629,9.59c-0.003-0.005-0.005-0.01-0.008-0.016    c14.13-7.071,23.859-21.678,23.859-38.525c0-23.064-18.225-41.947-41.029-43.015c-10.488-20.586-30.61-33.393-45.832-40.556    c-20.225-9.518-45.72-15.971-76.141-19.307c-10.738-17.989-29.958-29.004-51.083-29.004h-10.536    c-21.567,0-41.018,11.384-51.633,29.948c-8.339,1.094-16.28,2.438-23.821,4.026c10.763-31.954,40.83-54.118,75.454-54.118h10.536    c28.099,0,53.594,14.409,68.201,38.544c2.144,3.544,6.755,4.677,10.3,2.533c3.543-2.145,4.678-6.756,2.532-10.3    c-17.089-28.236-48.139-45.777-81.033-45.777h-10.536c-44.294,0-82.322,30.52-92.199,73.23    c-10.698,3.045-20.421,6.677-29.141,10.892c-25.935,12.537-38.425,28.124-44.435,39.889    c-22.804,1.069-41.028,19.952-41.028,43.016c0,16.735,9.601,31.257,23.579,38.38l-0.009,0.022l-19.346-9.452    c-7.422-3.627-15.814-4.146-23.626-1.462c-7.813,2.684-14.114,8.251-17.74,15.674c-3.626,7.423-4.145,15.814-1.461,23.626    c2.685,7.813,8.25,14.113,15.673,17.74l30.801,15.049c8.407,4.107,17.603,6.497,26.969,7.048v88.037    c0,38.162,27.821,70.379,65.189,76.157c5.964,12.278,18.559,20.763,33.101,20.763c14.172,0,26.489-8.063,32.627-19.839h17.328    c6.138,11.775,18.455,19.839,32.627,19.839c14.172,0,26.489-8.063,32.627-19.839h17.328c6.137,11.775,18.454,19.839,32.627,19.839    c20.278,0,36.775-16.498,36.775-36.775c0-15.97-13.043-64.154-36.775-64.154c-32.082,0-36.757,65.449-36.724,66.091h-9.134    c0.034-0.641-7.448-66.091-36.724-66.091c-29.275,0-36.757,65.449-36.724,66.091h-9.134c0.033-0.641-8.792-66.091-36.724-66.091    c-23.719,0-36.76,48.128-36.775,64.125c-27.032-6.946-46.516-31.451-46.516-60.116V236.79h120.913c4.142,0,7.5-3.358,7.5-7.5    c0-4.142-3.358-7.5-7.5-7.5H83.366c-15.477,0-28.067-12.591-28.067-28.067c0-15.476,12.591-28.067,28.067-28.067h345.29    c15.476,0,28.066,12.591,28.066,28.067c0,15.476-12.591,28.067-28.066,28.067h-187.35c-4.142,0-7.5,3.358-7.5,7.5    c0,4.142,3.358,7.5,7.5,7.5h180.577v151.596c0,21.222-10.671,40.756-28.545,52.254c-3.483,2.241-4.393,6.821-2.25,10.365    c3.173,5.247,9.11,3.058,10.365,2.25c22.185-14.271,35.43-38.521,35.43-64.869v-88.037c9.366-0.551,18.563-2.941,26.969-7.048    l30.802-15.049C509.977,270.766,516.353,252.209,508.867,236.886z M324.767,417.14c6.13-14.051,11.725-17.763,13.826-17.763    c2.102,0,7.696,3.712,13.826,17.763c5.163,11.834,7.949,25.005,7.949,31.391c0,12.007-9.768,21.775-21.775,21.775    c-12.007,0-21.775-9.769-21.775-21.775C316.817,442.145,319.604,428.973,324.767,417.14z M242.184,417.14    c6.13-14.051,11.725-17.763,13.827-17.763c2.102,0,7.696,3.712,13.826,17.763c5.163,11.834,7.949,25.005,7.949,31.391    c0,12.007-9.769,21.775-21.775,21.775c-12.007,0-21.775-9.769-21.775-21.775C234.235,442.145,237.021,428.973,242.184,417.14z     M159.602,417.14c6.13-14.051,11.725-17.763,13.827-17.763c2.101,0,7.696,3.712,13.827,17.763    c5.163,11.834,7.949,25.005,7.949,31.391c0,12.007-9.769,21.775-21.775,21.775c-12.007,0-21.775-9.769-21.775-21.775    C151.653,442.145,154.439,428.973,159.602,417.14z M75.138,285.318c-7.084-0.528-14.025-2.387-20.384-5.494l-30.801-15.049    c-3.823-1.868-6.69-5.112-8.072-9.136c-1.382-4.024-1.115-8.345,0.752-12.168c1.868-3.823,5.112-6.69,9.136-8.072    c4.023-1.382,8.345-1.114,12.168,0.753c0,0,29.035,15.143,37.201,17.114V285.318z M247.101,76.84h10.536    c11.67,0,22.559,4.506,30.696,12.284c-10.294-0.629-21.066-0.949-32.322-0.949c-14.153,0-27.547,0.501-40.173,1.494    C224.018,81.555,235.119,76.84,247.101,76.84z M98.875,150.656c5.967-8.36,16.125-17.974,33.415-26.332    c29.03-14.034,70.656-21.149,123.721-21.149c103.606,0,142.538,26.898,157.152,47.481H98.875z M488.069,264.775l-30.802,15.049    c-6.361,3.107-13.297,4.966-20.385,5.493v-32.058c9.378-1.757,37.201-17.108,37.201-17.108c7.894-3.855,17.449-0.573,21.305,7.32    C499.244,251.362,495.961,260.919,488.069,264.775z"/>
		<path d="M256.01,352.769c-19.63,0-35.6-15.97-35.6-35.6v-20.43c0-8.365,6.806-15.171,15.171-15.171h40.859    c8.365,0,15.171,6.806,15.171,15.171v20.43C291.61,336.8,275.64,352.769,256.01,352.769z M235.581,296.568    c-0.094,0-0.171,20.601-0.171,20.601c0,11.359,9.241,20.6,20.6,20.6c11.359,0,20.6-9.241,20.601-20.601v-20.43    C276.611,296.645,235.581,296.568,235.581,296.568z"/>
		<path d="M336.667,304.066c-4.143,0-7.5-3.358-7.5-7.5v-12.451c0-4.142,3.357-7.5,7.5-7.5s7.5,3.358,7.5,7.5v12.451    C344.167,300.708,340.81,304.066,336.667,304.066z"/>
		<path d="M175.354,304.066c-4.143,0-7.5-3.358-7.5-7.5v-12.451c0-4.142,3.357-7.5,7.5-7.5c4.143,0,7.5,3.358,7.5,7.5v12.451    C182.854,300.708,179.497,304.066,175.354,304.066z"/>
	</g>
</g>















</svg>
