<?xml version="1.0" encoding="utf-8"?>
<!-- Generator: Adobe Illustrator 19.2.1, SVG Export Plug-In . SVG Version: 6.00 Build 0)  -->
<svg version="1.1" id="Layer_1" xmlns="http://www.w3.org/2000/svg" xmlns:xlink="http://www.w3.org/1999/xlink" x="0px" y="0px"
	 viewBox="0 0 90.7 90.7" style="enable-background:new 0 0 90.7 90.7;" xml:space="preserve">
<style type="text/css">
	.st0{fill:#FCFCFC;}
</style>
<g>
	<path class="st0" d="M67.9,16.5c0.1-1.2-0.5-2.4-1.5-3c-4.8-2.6-11.1-4-18.3-4c-4.9,0-10,0.7-15.1,2c0.4-0.7,0.6-1.5,0.4-2.3
		c-0.3-1.2-1.4-2-2.7-2c-0.3,0-0.5,0-0.8,0.1c-0.7,0.2-1.3,0.7-1.7,1.3c-0.4,0.6-0.5,1.4-0.2,2.1c0.2,0.8,0.8,1.5,1.6,1.8
		C17.3,16.3,7,23.6,2.4,31.7c-0.5,0.9-0.5,2.1,0,3C3,35.6,4,36.2,5,36.2c0.3,0,0.6,0,0.8-0.1l59.8-17C66.9,18.8,67.8,17.8,67.9,16.5
		z M64.9,16.2l-59.8,17c0,0,0,0,0,0c0,0,0,0,0-0.1c4.4-7.8,14.8-14.9,27.2-18.4c5.4-1.5,10.7-2.3,15.9-2.3
		C54.7,12.5,60.5,13.8,64.9,16.2C64.9,16.2,64.9,16.2,64.9,16.2z"/>
	<path class="st0" d="M84.3,75.4V45.1c1.7-0.6,3-2.3,3-4.2v-0.3c0-2.5-2-4.3-4.4-4.3H19.3c-2.5,0-4.6,1.8-4.6,4.3v0.3
		c0,2,1.3,3.6,3.3,4.2v30.3c0,4.5,3.5,8.1,8,8.1h50.1C80.6,83.6,84.3,79.9,84.3,75.4z M84.3,41.2c0,0.8-0.7,1.5-1.5,1.5H19.2
		c-0.8,0-1.5-0.7-1.5-1.5v-0.4c0-0.8,0.7-1.5,1.5-1.5h63.7c0.8,0,1.5,0.7,1.5,1.5L84.3,41.2L84.3,41.2z M81.3,75.4
		c0,2.8-2.3,5.2-5.2,5.2H26c-2.8,0-5-2.3-5-5.2V45.3h60.3L81.3,75.4L81.3,75.4z"/>
	<path class="st0" d="M78.7,19.7c0.4,0,0.9-0.2,1.2-0.5l2.1-2.5c0.5-0.6,0.4-1.6-0.2-2.1c-0.6-0.5-1.6-0.4-2.1,0.2l-2.1,2.5
		c-0.5,0.6-0.4,1.6,0.2,2.1C78,19.6,78.4,19.7,78.7,19.7z"/>
	<path class="st0" d="M81.7,23.5c0.3,0.5,0.8,0.8,1.3,0.8c0.2,0,0.5-0.1,0.7-0.2l4.2-2.3c0.7-0.4,1-1.3,0.6-2s-1.3-1-2-0.6l-4.2,2.3
		C81.6,21.9,81.3,22.8,81.7,23.5z"/>
</g>
</svg>
