<?xml version="1.0" encoding="utf-8"?>
<!-- Generator: Adobe Illustrator 19.2.1, SVG Export Plug-In . SVG Version: 6.00 Build 0)  -->
<svg version="1.1" id="Layer_1" xmlns="http://www.w3.org/2000/svg" xmlns:xlink="http://www.w3.org/1999/xlink" x="0px" y="0px"
	 viewBox="0 0 90.7 90.7" style="enable-background:new 0 0 90.7 90.7;" xml:space="preserve">
<style type="text/css">
	.st0{fill:#FFFFFF;}
</style>
<g>
	<g>
		<path class="st0" d="M88.8,34.5H1.9v5.4h2.7c3,0,5.4,2.4,5.4,5.4v31l4.3,4.3h61.9l4.3-4.3v-31c0-3,2.4-5.4,5.4-5.4h2.7V34.5z
			 M16.6,75.2l-1.1-1.1V39.9h8.1v34.2l0.8,1.1H16.6z"/>
		<path class="st0" d="M80.7,27.4l-3.3-1.6c-6.8-3.5-14.1-5.7-21.7-6.8l-3-9H38l-3,9c-7.6,1.1-14.9,3.3-21.7,6.8l-3.3,1.6v4.3h70.6
			V27.4z M41,18.2l0.8-2.7h7.1l0.8,2.7H41z"/>
	</g>
</g>
</svg>
