<?xml version="1.0" encoding="utf-8"?>
<!-- Generator: Adobe Illustrator 19.2.1, SVG Export Plug-In . SVG Version: 6.00 Build 0)  -->
<svg version="1.1" id="Layer_1" xmlns="http://www.w3.org/2000/svg" xmlns:xlink="http://www.w3.org/1999/xlink" x="0px" y="0px"
	 viewBox="0 0 90.7 90.7" style="enable-background:new 0 0 90.7 90.7;" xml:space="preserve">
<style type="text/css">
	.st0{fill:#FFFFFF;}
</style>
<path class="st0" d="M73.9,23.5c0.3-1.2-0.1-2.4-1.1-3.2c-4.4-3.3-10.4-5.6-17.5-6.6c-4.9-0.7-10-0.8-15.2-0.2
	c0.5-0.6,0.8-1.4,0.7-2.2c-0.2-1.2-1.1-2.2-2.4-2.4c-0.3,0-0.5,0-0.8,0C37,9,36.3,9.4,35.9,10s-0.6,1.3-0.5,2.1
	c0.1,0.8,0.6,1.6,1.3,2c-12.7,2.1-24,7.8-29.6,15.2c-0.7,0.9-0.8,2-0.4,3c0.4,1,1.3,1.7,2.4,1.9c0.3,0,0.6,0,0.9,0l61.6-8.3
	C72.6,25.6,73.6,24.7,73.9,23.5z M71,22.8L9.4,31.1c0,0,0,0,0,0c0,0,0,0,0-0.1c5.5-7.1,16.8-12.6,29.5-14.3c5.5-0.7,11-0.7,16.1,0
	C61.5,17.6,67.1,19.7,71,22.8C71.1,22.7,71,22.8,71,22.8z"/>
<path class="st0" d="M75.9,75.4V45.1c1.7-0.6,3-2.3,3-4.2v-0.3c0-2.5-2-4.3-4.4-4.3H10.9c-2.5,0-4.6,1.8-4.6,4.3v0.3
	c0,2,1.3,3.6,3.3,4.2v30.3c0,4.5,3.5,8.1,8,8.1h50.1C72.3,83.6,75.9,79.9,75.9,75.4z M75.9,41.2c0,0.8-0.7,1.5-1.5,1.5H10.8
	c-0.8,0-1.5-0.7-1.5-1.5v-0.4c0-0.8,0.7-1.5,1.5-1.5h63.7c0.8,0,1.5,0.7,1.5,1.5L75.9,41.2L75.9,41.2z M72.9,75.4
	c0,2.8-2.3,5.2-5.2,5.2H17.7c-2.8,0-5-2.3-5-5.2V45.3h60.3L72.9,75.4L72.9,75.4z"/>
<g>
	<path class="st0" d="M78.3,28.3c0.4,0.2,0.9,0.2,1.3,0l2.9-1.5c0.7-0.4,1-1.3,0.7-2c-0.4-0.7-1.3-1-2-0.7l-2.9,1.5
		c-0.7,0.4-1,1.3-0.7,2C77.7,27.9,78,28.2,78.3,28.3z"/>
	<path class="st0" d="M79.6,33c0.1,0.6,0.4,1,0.9,1.2c0.2,0.1,0.5,0.1,0.7,0.1l4.7-0.5c0.8-0.1,1.4-0.8,1.3-1.6
		c-0.1-0.8-0.8-1.4-1.6-1.3l-4.7,0.5C80.1,31.4,79.5,32.1,79.6,33z"/>
</g>
</svg>
