<svg xmlns="http://www.w3.org/2000/svg" xmlns:xlink="http://www.w3.org/1999/xlink" version="1.1" x="0px" y="0px" viewBox="0 0 32 40" style="enable-background:new 0 0 32 32;" xml:space="preserve"><g><g><path d="M32,12H0v2h1c1.1,0,2,0.9,2,2v11.4L4.6,29h22.8l1.6-1.6V16c0-1.1,0.9-2,2-2h1V12z M5.4,27L5,26.6V14h3v12.6L8.3,27H5.4z"/><path d="M29,9.4l-1.2-0.6c-2.5-1.3-5.2-2.1-8-2.5L18.7,3h-5.4l-1.1,3.3c-2.8,0.4-5.5,1.2-8,2.5L3,9.4V11h26V9.4z M14.4,6l0.3-1    h2.6l0.3,1H14.4z"/></g></g><text x="0" y="47" fill="#000000" font-size="5px" font-weight="bold" font-family="'Helvetica Neue', Helvetica, Arial-Unicode, Arial, Sans-serif">Created by Dmitry Mirolyubov</text><text x="0" y="52" fill="#000000" font-size="5px" font-weight="bold" font-family="'Helvetica Neue', Helvetica, Arial-Unicode, Arial, Sans-serif">from the Noun Project</text></svg>