<svg xmlns="http://www.w3.org/2000/svg" xmlns:xlink="http://www.w3.org/1999/xlink" version="1.1" x="0px" y="0px" viewBox="0 0 24 24" style="enable-background:new 0 0 24 24;" xml:space="preserve"><g><path d="M11.588,4.154c0.11,0.158,0.22,0.317,0.307,0.486c0.253,0.495,0.207,0.72,0.007,1.034   c-0.118,0.186-0.063,0.433,0.124,0.552c0.067,0.042,0.141,0.062,0.214,0.062c0.133,0,0.262-0.066,0.339-0.186   c0.379-0.597,0.387-1.126,0.029-1.827c-0.102-0.201-0.231-0.389-0.36-0.577l-0.163-0.24c-0.237-0.365-0.2-0.748,0.103-1.049   C12.344,2.253,12.345,2,12.189,1.843c-0.158-0.158-0.41-0.157-0.566-0.001c-0.568,0.567-0.651,1.372-0.21,2.052L11.588,4.154z"></path><path d="M9.148,4.151c0.11,0.159,0.221,0.318,0.308,0.488c0.253,0.496,0.207,0.72,0.007,1.034   C9.344,5.859,9.4,6.107,9.586,6.225C9.653,6.268,9.727,6.288,9.8,6.288c0.132,0,0.262-0.066,0.338-0.185   c0.38-0.598,0.388-1.127,0.03-1.828c-0.103-0.201-0.231-0.39-0.361-0.578L9.645,3.458c-0.237-0.366-0.2-0.748,0.103-1.049   C9.905,2.253,9.906,2,9.75,1.842C9.593,1.684,9.34,1.685,9.184,1.841c-0.569,0.567-0.651,1.372-0.21,2.052L9.148,4.151z"></path><path d="M14.03,4.155c0.109,0.158,0.219,0.316,0.305,0.484c0.254,0.496,0.207,0.72,0.008,1.034   c-0.119,0.186-0.065,0.433,0.122,0.552c0.067,0.043,0.141,0.063,0.215,0.063c0.132,0,0.261-0.065,0.335-0.185   c0.381-0.597,0.389-1.126,0.031-1.828c-0.102-0.199-0.23-0.386-0.359-0.574l-0.163-0.243c-0.237-0.365-0.2-0.748,0.103-1.049   C14.783,2.253,14.784,2,14.628,1.843c-0.156-0.157-0.409-0.156-0.565-0.001c-0.568,0.566-0.651,1.371-0.21,2.051L14.03,4.155z"></path><path d="M23.915,12.286c-0.149-1.17-1.097-1.965-2.368-1.984c-0.222-0.004-0.448-0.003-0.68-0.002v0   c0.005-0.024-4.595-0.002-0.386-0.002H3.539c-0.209,0,2.127,0.002-0.003,0.002l-0.35-0.001c-0.251-0.002-0.493-0.002-0.734,0.002   c-1.271,0.019-2.218,0.815-2.368,1.985c-0.025,0.134-0.025,0.305-0.025,0.509c0.001,0.981,0.475,1.721,1.371,2.142   c0.567,0.265,1.137,0.526,1.709,0.778v2.124l-0.001,1.077c0,0.007,0.001,0.013,0.001,0.021v0.186c0,0.036,0.012,0.068,0.02,0.101   c0.111,1.785,1.158,2.894,2.932,3.043l0.003-0.013c0.032,0.009,0.064,0.019,0.098,0.02v0.002h0.011h11.61h0.012   c0.031,0,0.07-0.002,0.101-0.009c1.878-0.157,2.955-1.379,2.955-3.351l-0.005-3.208c0.567-0.25,1.132-0.508,1.693-0.771   c0.896-0.42,1.37-1.161,1.372-2.142C23.941,12.59,23.941,12.419,23.915,12.286z M1.77,14.212c-0.621-0.291-0.91-0.741-0.911-1.418   c0-0.167,0.002-0.265,0.004-0.32c0.006-0.021,0.011-0.042,0.013-0.064c0.091-0.794,0.7-1.295,1.589-1.308   C2.686,11.098,2.909,11.1,3.139,11.1v3.735C2.681,14.631,2.224,14.425,1.77,14.212z M22.231,14.213   c-0.452,0.211-0.908,0.417-1.364,0.621V11.1c0.226,0,0.45-0.001,0.669,0.002c0.889,0.014,1.498,0.515,1.589,1.308   c0.003,0.022,0.007,0.044,0.013,0.065c0.003,0.056,0.004,0.153,0.004,0.32C23.142,13.472,22.852,13.922,22.231,14.213z"></path><path d="M3.537,9.529h16.927c0.221,0,0.4-0.179,0.4-0.4c0-0.221-0.179-0.4-0.4-0.4h-8.063V7.976h1.318   c0.221,0,0.4-0.179,0.4-0.4s-0.179-0.4-0.4-0.4h-3.437c-0.221,0-0.4,0.179-0.4,0.4s0.179,0.4,0.4,0.4h1.319v0.753H3.537   c-0.221,0-0.4,0.179-0.4,0.4C3.137,9.35,3.316,9.529,3.537,9.529z"></path></g></svg>