<?xml version="1.0" encoding="utf-8"?>
<!-- Generator: Adobe Illustrator 19.2.1, SVG Export Plug-In . SVG Version: 6.00 Build 0)  -->
<svg version="1.1" id="Layer_1" xmlns="http://www.w3.org/2000/svg" xmlns:xlink="http://www.w3.org/1999/xlink" x="0px" y="0px"
	 viewBox="0 0 226.8 283.5" style="enable-background:new 0 0 226.8 283.5;" xml:space="preserve">
<path d="M72.9,124.6c0.6-0.7,1.6-1,2.4-1.2v6.9c-0.4-0.1-1.1-0.2-1.6-0.6c-0.7-0.5-1.1-1.4-1.3-2.8
	C72.3,125.4,72.8,124.8,72.9,124.6z M79.2,149.7c0.1,0.8,1.2,6.1,6,6.4c6.4,0.3,53.7,0,58.2,0c0.9-0.4,4-2,4-6.7v-35.7H79.2V149.7z
	 M117.7,88.2c-0.6-1.5-2.1-3.9-5.2-3.3c-3.2,0.6-3.3,3.8-3.2,5.3L117.7,88.2z M150.5,92.8c-1.9,0-3.5,1.6-3.5,3.5s1.6,3.5,3.5,3.5
	s3.5-1.6,3.5-3.5S152.4,92.8,150.5,92.8z M203.4,113.4c0,49.7-40.3,90-90,90s-90-40.3-90-90s40.3-90,90-90S203.4,63.7,203.4,113.4z
	 M149,61.7c0,2.1,1.7,3.8,3.8,3.8s3.8-1.7,3.8-3.8s-1.7-3.8-3.8-3.8S149,59.6,149,61.7z M150.5,87.7c-4.7,0-8.6,3.9-8.6,8.6
	s3.9,8.6,8.6,8.6s8.6-3.9,8.6-8.6S155.2,87.7,150.5,87.7z M141.8,75.5c0,1.3,1.1,2.4,2.4,2.4s2.4-1.1,2.4-2.4s-1.1-2.4-2.4-2.4
	C142.8,73.1,141.8,74.2,141.8,75.5z M76,100.7c0.3,1.2,1.3,2,2.5,2c0.2,0,0.4-0.1,0.6-0.1l71.8-17.1c1.4-0.4,2.2-1.7,1.9-3.1
	c-0.4-1.4-1.7-2.2-3.1-1.9l-27,6.5c-1.2-3.4-4.7-8.4-11.2-7.1c-6.8,1.3-7.7,7.8-7.2,11.5l-26.4,6.3C76.6,98,75.7,99.4,76,100.7z
	 M131.3,100.4c1.6-0.2,2.2,0.3,2.4,0.5c1,0.9,1.3,2.7,1.3,3.3c0,1.4,1.1,2.5,2.5,2.5c0.1,0,0.1,0,0.1,0c1.4,0,2.5-1.2,2.5-2.6
	c0-0.5-0.2-4.5-3.1-7c-1.1-1-3.2-2.1-6.3-1.7c-2.7,0.4-4.8,1.5-6.2,3.3c-1.9,2.6-1.5,5.6-1.5,5.9c0.2,1.3,1.4,2.3,2.8,2.1
	c1.4-0.1,2.4-1.4,2.2-2.8C127.9,102.8,128.2,101,131.3,100.4z M159.2,126.7c-0.4-2.7-1.5-4.8-3.3-6.2c-1.7-1.3-3.6-1.6-4.8-1.6v-7
	c0-1-0.8-1.9-1.9-1.9h-72c-1,0-1.9,0.8-1.9,1.9v6.4c-1.3,0.1-4.2,0.7-6.2,3c-1,1.1-2.1,3.1-1.7,6.3c0.4,2.7,1.5,4.8,3.3,6.2
	c1.7,1.3,3.5,1.6,4.7,1.6v14.5c0,0,0,0.1,0,0.2c0.4,3.3,2.9,9.5,9.6,9.8c2.3,0.1,9.6,0.1,18.4,0.1c16.9,0,38.9-0.1,40.3-0.1
	c0.2,0,0.4,0,0.6-0.1c2.4-0.7,6.9-3.9,6.9-10.4V136c1.3-0.1,4.3-0.7,6.3-3C158.5,131.8,159.6,129.8,159.2,126.7z M152.9,124.5
	c-0.6-0.4-1.3-0.5-1.7-0.6v6.9c0.8-0.2,1.9-0.5,2.5-1.2c0.2-0.2,0.7-0.8,0.5-2.4C154,125.9,153.6,125,152.9,124.5z"/>
</svg>
